<svg width="256" height="256" viewBox="0 0 256 256" fill="none" xmlns="http://www.w3.org/2000/svg">
  <rect width="256" height="256" rx="64" fill="#0D1118"/>
  <rect x="24" y="24" width="208" height="208" rx="52" stroke="#222936" stroke-width="8"/>
  <circle cx="128" cy="128" r="58" fill="#121823" stroke="#303949" stroke-width="10"/>
  <path d="M127.5 64C139.021 80.1139 161 92.3527 161 125.609C161 149.899 145.125 176 115.5 176C89.8338 176 72 156.623 72 132.838C72 112.241 84.3122 96.7067 97.2558 88.2277C100.796 108.987 114.291 119.977 127.5 125.609C126.754 107.742 132.707 91.8308 127.5 64Z" fill="#D2A06C"/>
  <path d="M124.5 107C132.002 117.276 144 126.007 144 144.846C144 159.689 133.256 174 118.5 174C104.836 174 95 163.761 95 151.154C95 140.265 101.475 131.515 109.466 126.625C111.181 139.08 118.561 146.339 126.5 149.231C125.882 138.228 130.16 128.746 124.5 107Z" fill="#F3CE92"/>
</svg>
